<?xml version="1.0" encoding="utf-8"?>
<!-- Generator: Adobe Illustrator 18.0.0, SVG Export Plug-In . SVG Version: 6.00 Build 0)  -->
<!DOCTYPE svg PUBLIC "-//W3C//DTD SVG 1.1//EN" "http://www.w3.org/Graphics/SVG/1.1/DTD/svg11.dtd">
<svg version="1.1" xmlns="http://www.w3.org/2000/svg" xmlns:xlink="http://www.w3.org/1999/xlink" x="0px" y="0px"
     width="35px" height="35px" viewBox="0 0 35 35" enable-background="new 0 0 35 35" xml:space="preserve">
<polygon fill="#296088" points="28.3,10.6 24,8 15.1,18.9 10,14.1 6.7,17.8 6.7,18.8 7.7,18.8 15.5,26.1 18.7,22.2 27.5,11.7 
    28.3,11.7 "/>
<polygon fill="#0F80C4" points="28.3,11.6 24,9 15.1,19.9 10,15.1 6.7,18.8 15.5,27.1 18.7,23.2 18.7,23.2 "/>
<path fill="#296088" d="M17.5,0C7.9,0,0,7.9,0,17.5S7.9,35,17.5,35S35,27.1,35,17.5S27.1,0,17.5,0z M17.5,33.8
    c-9,0-16.2-7.3-16.2-16.3S8.6,1.3,17.5,1.3c9,0,16.3,7.3,16.3,16.2C33.8,26.5,26.5,33.8,17.5,33.8z"/>
</svg>
