<svg id="Layer_1" data-name="Layer 1" xmlns="http://www.w3.org/2000/svg" viewBox="0 0 361 529"><defs><style>.cls-1{fill:#4280ff;}.cls-11,.cls-2,.cls-6{fill:none;}.cls-2{stroke:#fff;}.cls-2,.cls-5,.cls-6,.cls-7,.cls-8{stroke-linecap:round;}.cls-10,.cls-11,.cls-2,.cls-4,.cls-5,.cls-6,.cls-7,.cls-8{stroke-miterlimit:10;}.cls-10,.cls-2,.cls-4,.cls-5,.cls-6,.cls-7,.cls-8{stroke-width:6.64px;}.cls-3{fill:#1f3066;}.cls-4{fill:#eb4627;}.cls-10,.cls-4,.cls-5,.cls-6,.cls-7,.cls-8{stroke:#042430;}.cls-5{fill:#efd4bf;}.cls-7{fill:#cccece;}.cls-8{fill:#fff;}.cls-9{fill:#042430;}.cls-10{fill:#b7a476;}.cls-11{stroke:#1f3066;stroke-width:7.97px;}.cls-12{fill:#ffd558;}</style></defs><title>v2</title><circle class="cls-1" cx="182.17" cy="186.65" r="128.87"/><path class="cls-2" d="M86.52,186.65a95.22,95.22,0,0,1,16.33-53.48"/><path class="cls-2" d="M243,112.85a96,96,0,0,1,25.36,32.34"/><path class="cls-3" d="M83.38,285.65l7.21,51.21h.24l5-57.2h11.36l-8.92,89.59H84.23l-6.47-52.68h-.25l-6.72,52.68H57.22L48.3,279.66H59.79L65,336.86h.25l7.09-51.21Z"/><path class="cls-3" d="M115.77,279.66H145.1v11.25H127.38v28h16.5v11.24h-16.5V358H145.1v11.24H115.77Z"/><path class="cls-3" d="M188.49,358.5a10.85,10.85,0,0,1-10.76,10.75H155.12V279.66h22.61a10.85,10.85,0,0,1,10.76,10.76v24.2c0,6.11-3.42,9-6.36,9.78,2.94.73,6.36,3.66,6.36,9.77Zm-21.76-67.59v28h7.34a2.77,2.77,0,0,0,2.81-2.82V293.72a2.76,2.76,0,0,0-2.81-2.81Zm0,39.11v28h7.34a2.77,2.77,0,0,0,2.81-2.81V332.83a2.76,2.76,0,0,0-2.81-2.81Z"/><path class="cls-3" d="M200.35,369.25V279.66h23a10.85,10.85,0,0,1,10.76,10.76V358.5a10.85,10.85,0,0,1-10.76,10.75ZM212,290.91V358h7.7a2.77,2.77,0,0,0,2.81-2.81V293.72a2.76,2.76,0,0,0-2.81-2.81Z"/><path class="cls-3" d="M246.79,279.66h29.33v11.25H258.4v28h16.5v11.24H258.4V358h17.72v11.24H246.79Z"/><path class="cls-3" d="M307.05,369.25h-14.3l-11.49-89.59h11.85L300,339.92h.24l6.72-60.26h11.62Z"/><path class="cls-1" d="M63,470.7H51.36V381.11H63Z"/><path class="cls-1" d="M98.17,431.46h.12L97.8,413v-31.9h11V470.7H98.41l-12.1-50.36h-.12l.49,18.46v31.9h-11V381.11H86.07Z"/><path class="cls-1" d="M132.27,431.71A10.85,10.85,0,0,1,121.51,421V391.86a10.85,10.85,0,0,1,10.76-10.75h12.22a10.85,10.85,0,0,1,10.76,10.75v20.9H143.63v-17.6a2.77,2.77,0,0,0-2.81-2.81h-4.89a2.77,2.77,0,0,0-2.81,2.81v22.13a2.77,2.77,0,0,0,2.81,2.81h8.56a10.85,10.85,0,0,1,10.76,10.75v29.09a10.85,10.85,0,0,1-10.76,10.76H132.27a10.85,10.85,0,0,1-10.76-10.76V438.8h11.61v17.84a2.77,2.77,0,0,0,2.81,2.81h4.89a2.76,2.76,0,0,0,2.81-2.81V434.52a2.76,2.76,0,0,0-2.81-2.81Z"/><path class="cls-1" d="M179.57,470.7H168V381.11h11.61Z"/><path class="cls-1" d="M192.28,470.7V381.11h23A10.85,10.85,0,0,1,226,391.86v68.08a10.85,10.85,0,0,1-10.75,10.76Zm11.61-78.35v67.1h7.7a2.76,2.76,0,0,0,2.81-2.81V395.16a2.77,2.77,0,0,0-2.81-2.81Z"/><path class="cls-1" d="M238.72,381.11h29.34v11.24H250.33v28h16.5v11.25h-16.5v27.86h17.73V470.7H238.72Z"/><path class="cls-1" d="M301.06,381.11a10.85,10.85,0,0,1,10.75,10.75v27.87c0,4.77-2.08,8.8-6.35,10.27l12.34,40.7H305.46l-11.62-39.6h-4.15v39.6H278.08V381.11Zm-11.37,11.24v27.5h7.7A2.76,2.76,0,0,0,300.2,417V395.16a2.77,2.77,0,0,0-2.81-2.81Z"/><path class="cls-4" d="M241.62,161.3c-10.54-13.62-33.34-23-59.78-23s-49.26,9.43-59.79,23l18.6,20.36L204.42,179l31.89-6.65Z"/><path class="cls-5" d="M104.12,241.49H94.44a8.94,8.94,0,0,0-8.92,8.92v5.65h27.9Z"/><path class="cls-5" d="M262.21,241.49h9.68a8.94,8.94,0,0,1,8.92,8.92v5.65h-27.9Z"/><line class="cls-6" x1="48.99" y1="256.06" x2="317.34" y2="256.06"/><rect class="cls-7" x="104.12" y="162.4" width="158.09" height="93" rx="6.72" ry="6.72"/><path class="cls-5" d="M213.72,71.4c1.3-.42,1.24-.24,2.66,0,8,1.33,13.28,5.95,13.28,13.28a13.28,13.28,0,0,1-11.85,13.21l-.06-9.14A34.27,34.27,0,0,0,216,78.23Z"/><rect class="cls-8" x="172.89" y="201.63" width="21.88" height="21.88" rx="10.94" ry="10.94"/><path class="cls-5" d="M131.35,98a11.1,11.1,0,0,0-6,10.29,12.29,12.29,0,0,0,12.29,12.29,12.42,12.42,0,0,0,3.79-.59Z"/><path class="cls-5" d="M132.74,95.42c.69,1.16.27,2.71.5,4.07,4.13,25.35,26.26,42.83,49.43,39.06s38.61-27.39,34.48-52.73c-1.84-11.29-11.9-26-19.37-33C197.78,52.8,124.82,82.25,132.74,95.42Z"/><circle class="cls-9" cx="163.24" cy="107.27" r="3.99"/><path class="cls-10" d="M144.64,96.64s4,12-7.28,16.21c0,0-12.65-24.18-4-23.29C137.33,90,144.64,96.64,144.64,96.64Z"/><circle class="cls-9" cx="193.79" cy="96.64" r="3.99"/><path class="cls-10" d="M217.52,88.57c.13,9.48-26.41-15.5-26.41-15.5l9.6-17.28S217.34,75.18,217.52,88.57Z"/><path class="cls-10" d="M199.69,58.52a13.13,13.13,0,0,0-.86-11.84c-4.71-7.75-15.68-19.06-36.92-9.82C134.67,48.7,131.35,62.1,108.77,52.8c0,0-2.66,45.17,35.87,42.51C144.64,95.31,184.45,95.31,199.69,58.52Z"/><path class="cls-5" d="M167.38,139.32l15.78-.17,13.11.4a14.55,14.55,0,0,1-28.89-.23"/><circle class="cls-11" cx="284.46" cy="112.25" r="14.95"/><circle class="cls-3" cx="79.87" cy="110.92" r="10.3"/><circle class="cls-12" cx="52.31" cy="138.49" r="4.65"/><circle class="cls-12" cx="278.15" cy="70.73" r="2.18"/></svg>