<svg id="Layer_1" data-name="Layer 1" xmlns="http://www.w3.org/2000/svg" viewBox="0 0 630 290"><defs><style>.cls-1{fill:#4280ff;}.cls-11,.cls-2,.cls-6{fill:none;}.cls-2{stroke:#fff;}.cls-2,.cls-5,.cls-6,.cls-7,.cls-8{stroke-linecap:round;}.cls-10,.cls-11,.cls-2,.cls-4,.cls-5,.cls-6,.cls-7,.cls-8{stroke-miterlimit:10;}.cls-10,.cls-2,.cls-4,.cls-5,.cls-6,.cls-7,.cls-8{stroke-width:6.64px;}.cls-3{fill:#1f3066;}.cls-4{fill:#eb4627;}.cls-10,.cls-4,.cls-5,.cls-6,.cls-7,.cls-8{stroke:#042430;}.cls-5{fill:#efd4bf;}.cls-7{fill:#cccece;}.cls-8{fill:#fff;}.cls-9{fill:#042430;}.cls-10{fill:#b7a476;}.cls-11{stroke:#1f3066;stroke-width:7.97px;}.cls-12{fill:#ffd558;}</style></defs><title>v2 b</title><path class="cls-1" d="M73.58,249.06a128.86,128.86,0,1,1,217.18,0"/><path class="cls-2" d="M86.52,179.65a95.22,95.22,0,0,1,16.33-53.48"/><path class="cls-2" d="M243,105.85a96,96,0,0,1,25.36,32.34"/><path class="cls-3" d="M371.38,67.65l7.21,51.21h.24l5-57.2h11.36l-8.92,89.59H372.23l-6.47-52.68h-.25l-6.72,52.68H345.22L336.3,61.66h11.49l5.25,57.2h.25l7.09-51.21Z"/><path class="cls-3" d="M403.77,61.66H433.1V72.91H415.38v28h16.5v11.24h-16.5V140H433.1v11.24H403.77Z"/><path class="cls-3" d="M476.49,140.5a10.85,10.85,0,0,1-10.76,10.75H443.12V61.66h22.61a10.85,10.85,0,0,1,10.76,10.76v24.2c0,6.11-3.42,9-6.36,9.78,2.94.73,6.36,3.66,6.36,9.77ZM454.73,72.91v28h7.34a2.77,2.77,0,0,0,2.81-2.82V75.72a2.76,2.76,0,0,0-2.81-2.81Zm0,39.11v28h7.34a2.77,2.77,0,0,0,2.81-2.81V114.83a2.76,2.76,0,0,0-2.81-2.81Z"/><path class="cls-3" d="M488.35,151.25V61.66h23a10.85,10.85,0,0,1,10.76,10.76V140.5a10.85,10.85,0,0,1-10.76,10.75ZM500,72.91V140h7.7a2.77,2.77,0,0,0,2.81-2.81V75.72a2.76,2.76,0,0,0-2.81-2.81Z"/><path class="cls-3" d="M534.79,61.66h29.33V72.91H546.4v28h16.5v11.24H546.4V140h17.72v11.24H534.79Z"/><path class="cls-3" d="M595.05,151.25h-14.3L569.26,61.66h11.85L588,121.92h.24l6.72-60.26h11.62Z"/><path class="cls-1" d="M351,252.7H339.36V163.11H351Z"/><path class="cls-1" d="M386.17,213.46h.12L385.8,195v-31.9h11V252.7H386.41l-12.1-50.36h-.12l.49,18.46v31.9h-11V163.11h10.39Z"/><path class="cls-1" d="M420.27,213.71A10.85,10.85,0,0,1,409.51,203V173.86a10.85,10.85,0,0,1,10.76-10.75h12.22a10.85,10.85,0,0,1,10.76,10.75v20.9H431.63v-17.6a2.77,2.77,0,0,0-2.81-2.81h-4.89a2.77,2.77,0,0,0-2.81,2.81v22.13a2.77,2.77,0,0,0,2.81,2.81h8.56a10.85,10.85,0,0,1,10.76,10.75v29.09a10.85,10.85,0,0,1-10.76,10.76H420.27a10.85,10.85,0,0,1-10.76-10.76V220.8h11.61v17.84a2.77,2.77,0,0,0,2.81,2.81h4.89a2.76,2.76,0,0,0,2.81-2.81V216.52a2.76,2.76,0,0,0-2.81-2.81Z"/><path class="cls-1" d="M467.57,252.7H456V163.11h11.61Z"/><path class="cls-1" d="M480.28,252.7V163.11h23A10.85,10.85,0,0,1,514,173.86v68.08a10.85,10.85,0,0,1-10.75,10.76Zm11.61-78.35v67.1h7.7a2.76,2.76,0,0,0,2.81-2.81V177.16a2.77,2.77,0,0,0-2.81-2.81Z"/><path class="cls-1" d="M526.72,163.11h29.34v11.24H538.33v28h16.5v11.25h-16.5v27.86h17.73V252.7H526.72Z"/><path class="cls-1" d="M589.06,163.11a10.85,10.85,0,0,1,10.75,10.75v27.87c0,4.77-2.08,8.8-6.35,10.27l12.34,40.7H593.46l-11.62-39.6h-4.15v39.6H566.08V163.11Zm-11.37,11.24v27.5h7.7A2.76,2.76,0,0,0,588.2,199V177.16a2.77,2.77,0,0,0-2.81-2.81Z"/><path class="cls-4" d="M241.62,154.3c-10.54-13.62-33.34-23-59.78-23s-49.26,9.43-59.79,23l18.6,20.36L204.42,172l31.89-6.65Z"/><path class="cls-5" d="M104.12,234.49H94.44a8.94,8.94,0,0,0-8.92,8.92v5.65h27.9Z"/><path class="cls-5" d="M262.21,234.49h9.68a8.94,8.94,0,0,1,8.92,8.92v5.65h-27.9Z"/><line class="cls-6" x1="48.99" y1="249.06" x2="317.34" y2="249.06"/><rect class="cls-7" x="104.12" y="155.4" width="158.09" height="93" rx="6.72" ry="6.72"/><path class="cls-5" d="M213.72,64.4c1.3-.42,1.24-.24,2.66,0,8,1.33,13.28,5.95,13.28,13.28a13.28,13.28,0,0,1-11.85,13.21l-.06-9.14A34.27,34.27,0,0,0,216,71.23Z"/><rect class="cls-8" x="172.89" y="194.63" width="21.88" height="21.88" rx="10.94" ry="10.94"/><path class="cls-5" d="M131.35,91a11.1,11.1,0,0,0-6,10.29,12.29,12.29,0,0,0,12.29,12.29,12.42,12.42,0,0,0,3.79-.59Z"/><path class="cls-5" d="M132.74,88.42c.69,1.16.27,2.71.5,4.07,4.13,25.35,26.26,42.83,49.43,39.06s38.61-27.39,34.48-52.73c-1.84-11.29-11.9-26-19.37-33C197.78,45.8,124.82,75.25,132.74,88.42Z"/><circle class="cls-9" cx="163.24" cy="100.27" r="3.99"/><path class="cls-10" d="M144.64,89.64s4,12-7.28,16.21c0,0-12.65-24.18-4-23.29C137.33,83,144.64,89.64,144.64,89.64Z"/><circle class="cls-9" cx="193.79" cy="89.64" r="3.99"/><path class="cls-10" d="M217.52,81.57c.13,9.48-26.41-15.5-26.41-15.5l9.6-17.28S217.34,68.18,217.52,81.57Z"/><path class="cls-10" d="M199.69,51.52a13.13,13.13,0,0,0-.86-11.84c-4.71-7.75-15.68-19.06-36.92-9.82C134.67,41.7,131.35,55.1,108.77,45.8c0,0-2.66,45.17,35.87,42.51C144.64,88.31,184.45,88.31,199.69,51.52Z"/><path class="cls-5" d="M167.38,132.32l15.78-.17,13.11.4a14.55,14.55,0,0,1-28.89-.23"/><circle class="cls-11" cx="284.46" cy="105.25" r="14.95"/><circle class="cls-3" cx="79.87" cy="103.92" r="10.3"/><circle class="cls-12" cx="52.31" cy="131.49" r="4.65"/><circle class="cls-12" cx="278.15" cy="63.73" r="2.18"/></svg>