<?xml version="1.0" encoding="utf-8"?>
<!-- Generator: Adobe Illustrator 19.0.0, SVG Export Plug-In . SVG Version: 6.00 Build 0)  -->
<svg version="1.1" id="Layer_1" xmlns="http://www.w3.org/2000/svg" xmlns:xlink="http://www.w3.org/1999/xlink" x="0px" y="0px"
	 viewBox="0 0 200 50" style="enable-background:new 0 0 200 50;" xml:space="preserve">
<style type="text/css">
	.st0{fill:#282828;}
	.st1{fill:#FFFFFF;}
	.st2{opacity:0.23;fill:#707071;}
	.st3{opacity:0.23;fill:#A9A8A8;}
	.st4{fill:#353535;}
	.st5{opacity:0.57;fill:#C6C6C5;}
	.st6{fill:#1F8F9E;}
</style>
<g id="XMLID_103_">
	<g id="XMLID_31_">
		<g id="XMLID_155_">
			<path id="XMLID_168_" class="st0" d="M82.5,32.3c-2.9,0.4-5.8,0.4-8.6,0l-1.9,6.6h-6l9.7-28.3h5l9.8,28.3h-5.9L82.5,32.3z
				 M75,28.1c2.1,0.4,4.2,0.4,6.3,0l-3.2-10.9L75,28.1z"/>
			<path id="XMLID_166_" class="st0" d="M93.6,10.7h5.4v23.5h11.4v4.8H93.6V10.7z"/>
			<path id="XMLID_164_" class="st0" d="M113.9,10.7h16.9v4.8h-11.5v7.8h9.5V28h-9.5v10.9h-5.4V10.7z"/>
			<path id="XMLID_161_" class="st0" d="M143.5,28.6c-1.2,0-2.5-0.1-3.5-0.4v10.7h-5.4V10.7H145c5.8,0,9.4,3.6,9.4,8.3v1.4
				c0,3.4-2,6.3-5.3,7.5l3.1,5.7c1,1.9,2.7,1.6,3.9,1.3l0,4.1c-4.6,0.7-7,0.4-9.3-4.2L143.5,28.6z M140,23.4
				c1.4,0.4,2.9,0.5,4.7,0.5c2.8,0,4.2-1.8,4.2-4.1v-0.4c0-2.3-1.4-4-3.9-4h-5V23.4z"/>
			<path id="XMLID_159_" class="st0" d="M159.2,10.7h16.8v4.8h-11.4v6.7h9.5v4.7h-9.5v7.2h11.7v4.8h-17.1V10.7z"/>
			<path id="XMLID_156_" class="st0" d="M180.2,38.9V10.7h10.4c5.8,0,9.4,3.6,9.4,9.2v9.9c0,5.6-3.6,9.2-9.4,9.2H180.2z M185.7,34.1
				h5c2.5,0,3.9-1.7,3.9-4.9v-8.9c0-3.2-1.4-4.9-3.9-4.9h-5V34.1z"/>
		</g>
	</g>
	<g id="XMLID_143_">
		<path id="XMLID_40_" class="st1" d="M25,0C11.2,0,0,11.2,0,25c0,13.8,11.2,25,25,25c13.8,0,25-11.2,25-25C50,11.2,38.8,0,25,0z"/>
		<g id="XMLID_29_">
			<path id="XMLID_32_" class="st0" d="M6.3,10C3,14.1,1,19.3,1,25c0,8.3,4.2,15.6,10.6,19.9L6.3,10z"/>
			<path id="XMLID_42_" class="st0" d="M43.7,10l-5.3,34.9C44.8,40.6,49,33.3,49,25C49,19.3,47,14.1,43.7,10z"/>
		</g>
		<path id="XMLID_53_" class="st2" d="M36,7.8l-8,4.4c-0.4-0.4-1-0.7-1.6-0.7h-3c-0.6,0-1.2,0.3-1.6,0.7l-8-4.3c0,0-2.7,2.6-2.7,7.5
			c0,4.4,3.1,6.9,3.1,6.9s4.3-3.7,7.5-5.8c0.4,0.5,1,0.8,1.6,0.8h3c0.7,0,1.3-0.3,1.7-0.8c3.2,2.1,7.5,5.8,7.5,5.8s3.1-2.5,3.1-6.9
			C38.7,10.3,36,7.8,36,7.8z"/>
		<path id="XMLID_30_" class="st0" d="M38.8,13.4c0-5-2.7-7.5-2.7-7.5L25,12.9L13.9,5.9c0,0-2.7,2.6-2.7,7.5c0,4.4,2.7,7.5,2.7,7.5
			L25,13.8l11.1,7.1C36.1,20.9,38.8,17.8,38.8,13.4z"/>
		<g id="XMLID_49_">
			<circle id="XMLID_51_" class="st3" cx="25.4" cy="23.5" r="1.8"/>
			<circle id="XMLID_50_" class="st4" cx="25" cy="23.1" r="1.8"/>
		</g>
		<g id="XMLID_46_">
			<circle id="XMLID_48_" class="st3" cx="25.4" cy="33.3" r="1.8"/>
			<circle id="XMLID_47_" class="st4" cx="25" cy="32.9" r="1.8"/>
		</g>
		<g id="XMLID_43_">
			<circle id="XMLID_45_" class="st3" cx="25.4" cy="43.2" r="1.8"/>
			<circle id="XMLID_44_" class="st4" cx="25" cy="42.8" r="1.8"/>
		</g>
		<path id="XMLID_39_" class="st5" d="M13.2,9.1c0,0,8.5,1.7,10,4.3c-0.5,0.7-4.6,3.8-9.6,4.3c3.6-1.7,6.6-2.8,7.3-4.3
			C19.1,11.7,19.4,10.6,13.2,9.1z"/>
		<path id="XMLID_38_" class="st6" d="M14.4,10"/>
		<path id="XMLID_37_" class="st5" d="M13.2,12.4c0,0,3.6-0.5,6.7,0.9c-0.3,0.6-0.8,0.8-0.8,0.8S21.1,13,13.2,12.4z"/>
		<path id="XMLID_36_" class="st5" d="M36.4,9.1c0,0-8.5,1.7-10,4.3c0.5,0.7,4.6,3.8,9.6,4.3c-3.6-1.7-6.6-2.8-7.3-4.3
			C30.4,11.7,30.1,10.6,36.4,9.1z"/>
		<path id="XMLID_35_" class="st5" d="M36.4,12.4c0,0-3.6-0.5-6.7,0.9c0.3,0.6,0.8,0.8,0.8,0.8S28.5,13,36.4,12.4z"/>
		<path id="XMLID_34_" class="st0" d="M26.4,16.4h-2.8c-1.3,0-2.3-1-2.3-2.3v-1.5c0-1.3,1-2.3,2.3-2.3h2.8c1.3,0,2.3,1,2.3,2.3v1.5
			C28.7,15.4,27.7,16.4,26.4,16.4z"/>
	</g>
</g>
</svg>
